<svg width="40" height="40" viewBox="0 0 40 40" fill="none" xmlns="http://www.w3.org/2000/svg">
<rect width="40" height="40" rx="20" fill="#25D366"/>
<path d="M24.8428 21.2127C24.8057 21.1934 23.4174 20.452 23.1708 20.3558C23.07 20.3165 22.9622 20.2782 22.8474 20.2782C22.6599 20.2782 22.5025 20.3796 22.3798 20.5786C22.2411 20.8021 21.8213 21.3343 21.6916 21.4933C21.6747 21.5142 21.6516 21.5393 21.6377 21.5393C21.6253 21.5393 21.4104 21.4434 21.3454 21.4127C19.8562 20.7112 18.7258 19.0241 18.5708 18.7396C18.5487 18.6987 18.5477 18.6802 18.5475 18.6802C18.553 18.6585 18.6031 18.6041 18.6289 18.576C18.7045 18.4948 18.7864 18.3879 18.8657 18.2844C18.9032 18.2354 18.9408 18.1863 18.9777 18.1401C19.0927 17.995 19.1439 17.8823 19.2033 17.7519L19.2344 17.6841C19.3793 17.3718 19.2555 17.1083 19.2155 17.0232C19.1827 16.952 18.5965 15.4178 18.5342 15.2566C18.3843 14.8676 18.1863 14.6865 17.9111 14.6865C17.8856 14.6865 17.9111 14.6865 17.804 14.6914C17.6736 14.6974 16.9636 14.7988 16.6496 15.0134C16.3167 15.241 15.7534 15.9666 15.7534 17.2427C15.7534 18.3912 16.4255 19.4757 16.714 19.8881C16.7212 19.8985 16.7344 19.9196 16.7535 19.9499C17.8585 21.7 19.236 22.9971 20.6325 23.6021C21.9769 24.1845 22.6136 24.2518 22.9755 24.2518H22.9756C23.1277 24.2518 23.2494 24.2388 23.3568 24.2274L23.4249 24.2203C23.8894 24.1757 24.91 23.6021 25.1422 22.9025C25.325 22.3514 25.3733 21.7493 25.2516 21.5307C25.1683 21.3822 25.0246 21.3074 24.8428 21.2127Z" fill="white"/>
<path d="M20.1735 10.4351C14.9924 10.4351 10.7772 14.6185 10.7772 19.7607C10.7772 21.4239 11.2223 23.0519 12.0655 24.4768L10.4516 29.2374C10.4216 29.3261 10.4439 29.4242 10.5096 29.4911C10.557 29.5395 10.6213 29.5655 10.6869 29.5655C10.7121 29.5655 10.7374 29.5618 10.7621 29.5539L15.7261 27.9765C17.0845 28.7023 18.6198 29.0854 20.1736 29.0854C25.3542 29.0854 29.569 24.9024 29.569 19.7607C29.569 14.6185 25.3542 10.4351 20.1735 10.4351ZM20.1735 27.1428C18.7115 27.1428 17.2954 26.7206 16.0781 25.9219C16.0372 25.895 15.9897 25.8812 15.9418 25.8812C15.9166 25.8812 15.8912 25.885 15.8666 25.8929L13.3799 26.6833L14.1826 24.315C14.2086 24.2384 14.1956 24.1539 14.1478 24.0885C13.2208 22.8219 12.7308 21.3255 12.7308 19.7607C12.7308 15.6897 16.0696 12.3777 20.1735 12.3777C24.2768 12.3777 27.6152 15.6897 27.6152 19.7607C27.6153 23.8312 24.277 27.1428 20.1735 27.1428Z" fill="white"/>
</svg>
