<svg width="40" height="40" viewBox="0 0 40 40" fill="none" xmlns="http://www.w3.org/2000/svg">
<rect width="40" height="40" rx="20" fill="#3390EC"/>
<path d="M11.5546 18.9904C11.5546 18.9904 19.6309 15.5544 22.432 14.3446C23.5057 13.8606 27.1471 12.312 27.1471 12.312C27.1471 12.312 28.8277 11.6345 28.6876 13.2799C28.6409 13.9574 28.2675 16.3287 27.894 18.8936C27.3338 22.5232 26.7269 26.4915 26.7269 26.4915C26.7269 26.4915 26.6335 27.6046 25.8399 27.7981C25.0463 27.9917 23.7391 27.1206 23.5057 26.927C23.3189 26.7819 20.0044 24.6041 18.7906 23.5394C18.4638 23.2491 18.0904 22.6684 18.8373 21.9908C20.5179 20.3938 22.5253 18.4097 23.7391 17.1515C24.2993 16.5707 24.8595 15.2157 22.5253 16.861C19.2108 19.2324 15.9429 21.4585 15.9429 21.4585C15.9429 21.4585 15.1959 21.9424 13.7954 21.5069C12.3949 21.0714 10.7609 20.4906 10.7609 20.4906C10.7609 20.4906 9.64057 19.7647 11.5546 18.9904Z" fill="white"/>
</svg>
